<?xml version="1.0" encoding="iso-8859-1"?>
<!-- Generator: Adobe Illustrator 21.0.2, SVG Export Plug-In . SVG Version: 6.00 Build 0)  -->
<svg xmlns="http://www.w3.org/2000/svg" xmlns:xlink="http://www.w3.org/1999/xlink" version="1.1" id="Layer_1" x="0px" y="0px" viewBox="0 0 40 40" style="enable-background:new 0 0 40 40;" xml:space="preserve">
<g>
	<path style="fill:#DFF0FE;" d="M20,38.5C9.799,38.5,1.5,30.201,1.5,20S9.799,1.5,20,1.5S38.5,9.799,38.5,20S30.201,38.5,20,38.5z"/>
	<g>
		<path style="fill:#4788C7;" d="M20,2c9.925,0,18,8.075,18,18s-8.075,18-18,18S2,29.925,2,20S10.075,2,20,2 M20,1    C9.507,1,1,9.507,1,20s8.507,19,19,19s19-8.507,19-19S30.493,1,20,1L20,1z"/>
	</g>
</g>
<g>
	<path style="fill:#B6DCFE;" d="M1.517,20.5C1.507,20.335,1.5,20.168,1.5,20c0-10.033,8.03-18.227,18-18.493V20.5H1.517z"/>
	<g>
		<path style="fill:#4788C7;" d="M19,2.027V20H2C2,10.41,9.538,2.548,19,2.027 M20,1C9.507,1,1,9.507,1,20    c0,0.338,0.027,0.668,0.05,1H20V1L20,1z"/>
	</g>
</g>
<g>
	<path style="fill:#98CCFD;" d="M20,38.5c-10.033,0-18.227-8.029-18.493-18h18.289L32.86,33.3C29.393,36.657,24.846,38.5,20,38.5z"/>
	<g>
		<path style="fill:#4788C7;" d="M19.592,21l12.546,12.293C28.815,36.336,24.542,38,20,38c-9.59,0-17.452-7.538-17.973-17H19.592     M20,20H1c0,10.493,8.507,19,19,19c5.317,0,10.123-2.184,13.572-5.703L20,20L20,20z"/>
	</g>
</g>
</svg>
